<svg xmlns="http://www.w3.org/2000/svg" viewBox="0 0 11306.66 2058.64"><defs><style>.cls-1{fill:#213c5a;}</style></defs><g id="Layer_2" data-name="Layer 2"><g id="Layer_1-2" data-name="Layer 1"><path class="cls-1" d="M6129.33,0H5751.18L5409.77,490.51,5061.89,0H4664.3l531.54,743.28-502.08,690.18L4052.78,0H3707L3032.89,1512.57h358.69l134-324.14H4227.8l134,324.14h676.34l358.7-525.12L5762,1512.57h404.08l-564-782.21ZM3637.91,922.63l239.85-579.08,239.85,579.08Z"/><polygon class="cls-1" points="866.05 1020.84 1091.01 769.17 414.13 38.78 359.86 38.78 0 38.78 0 1512.58 359.86 1512.58 359.86 446.85 866.05 1020.84"/><polygon class="cls-1" points="2317.96 38.78 1905.92 38.78 1445.78 584.91 932.4 38.78 518.28 38.78 1161.77 770.49 514.13 1512.58 928.25 1512.58 1378.17 976.51 1441.48 976.51 1901.77 1510.5 2315.89 1510.5 1650.92 803.13 2317.96 38.78"/><polygon class="cls-1" points="2390.56 38.78 1713.66 769.17 1938.64 1020.84 2444.81 446.85 2444.81 1512.58 2804.67 1512.58 2804.67 38.78 2444.81 38.78 2390.56 38.78"/><path class="cls-1" d="M7008,7.22c-117,0-229.26,17.91-334.35,52.54-106.26,35.83-197,84.78-272.23,149.26l90.75,150.45c62.09-54.92,137.31-97.91,224.48-129,86-31.05,176.72-46.58,271.06-46.58q207.75,0,315.23,100.31c71.65,66.87,107.47,164.78,107.47,292.54v90.75H6937.53c-200.6,0-346.28,39.41-438.21,117S6362,963.68,6362,1090.25c0,130.15,49,235.23,146.87,314,99.1,80,230.45,119.41,397.63,119.41,120.6,0,224.48-21.49,312.85-65.67,87.17-43,154-103.88,199.41-180.31v231.66H7611v-923c0-191-51.34-335.54-155.23-432.26Q7299.92,7.22,7008,7.22Zm402.41,1054.37c-39.41,97.91-100.31,173.14-181.5,225.68-81.2,51.34-177.92,77.62-291.36,77.62-119.41,0-212.55-25.08-278.22-75.23s-99.1-118.21-99.1-205.39C6560.21,907.55,6688,818,6942.3,818h468.09Z"/><path class="cls-1" d="M9164.49,102.75C9051,39.46,8924.47,7.22,8784.76,7.22c-125.38,0-236.43,27.47-335.53,80S8270.11,215,8209.23,314.1V19.16H8017V2058.64h200.61V1228.76c63.28,96.72,142.09,169.56,240,219.71,96.72,50.15,206.59,75.22,327.18,75.22,142.1,0,268.67-31,380.91-94.33s200.6-152.84,265.09-268.66c64.48-114.64,96.72-247.18,96.72-396.44q0-220.29-96.72-394C9366.27,255.59,9277.91,166,9164.49,102.75Zm89.56,964.81c-49,88.36-115.84,157.61-200.62,205.38s-179.11,71.64-283,71.64c-106.26,0-200.6-23.87-285.38-71.64-83.59-47.77-149.26-117-198.22-205.38-47.75-88.37-71.64-189.86-71.64-303.3s23.89-213.73,71.64-302.09c49-87.18,114.63-156.43,198.22-205.39,84.78-48.95,179.12-72.84,285.38-72.84,103.89,0,198.23,23.89,283,72.84S9205.09,375,9254.05,462.17c47.75,88.36,71.63,188.65,71.63,302.09S9301.8,979.19,9254.05,1067.56Z"/><path class="cls-1" d="M10943.64,102.75c-113.43-63.29-240-95.53-379.71-95.53-124.17,0-236.42,27.47-335.53,80s-179.11,127.77-240,226.88V19.16H9796.14V2058.64h200.61V1228.76c63.29,96.72,143.28,169.56,240,219.71s206.57,75.22,327.17,75.22c142.1,0,268.67-31,380.92-94.33s200.59-152.84,265.08-268.66c64.48-114.64,96.73-247.18,96.73-396.44q0-220.29-96.73-394C11145.44,255.59,11057.09,166,10943.64,102.75Zm89.56,964.81c-49,88.36-114.63,157.61-200.6,205.38q-127.16,71.65-283,71.64c-105.08,0-200.61-23.87-284.2-71.64-84.78-47.77-150.45-117-198.2-205.38-49-88.37-72.85-189.86-72.85-303.3s23.89-213.73,72.85-302.09c47.75-87.18,113.42-156.43,198.2-205.39,83.59-48.95,179.12-72.84,284.2-72.84,103.88,0,198.22,23.89,283,72.84,86,49,151.65,118.21,200.6,205.39,47.77,88.36,71.66,188.65,71.66,302.09S11081,979.19,11033.2,1067.56Z"/></g></g></svg>