<svg xmlns="http://www.w3.org/2000/svg" viewBox="0 0 2804.67 1473.79"><g id="Layer_2" data-name="Layer 2"><g id="Layer_1-2" data-name="Layer 1"><polygon points="866.05 982.05 1091.01 730.38 414.13 0 359.86 0 0 0 0 1473.79 359.86 1473.79 359.86 408.07 866.05 982.05"/><polygon points="2317.96 0 1905.92 0 1445.78 546.12 932.4 0 518.28 0 1161.77 731.71 514.13 1473.79 928.25 1473.79 1378.17 937.72 1441.48 937.72 1901.77 1471.71 2315.89 1471.71 1650.92 764.35 2317.96 0"/><polygon points="2390.56 0 1713.66 730.38 1938.64 982.05 2444.81 408.07 2444.81 1473.79 2804.67 1473.79 2804.67 0 2444.81 0 2390.56 0"/></g></g></svg>